# File created by Blade
# Date/Time:  Wed Apr 08 14:47:20 2015
# Frame Rate: 120.000 fps
#------------------------------------------------------
:FULLY-SPECIFIED
:DEGREES
2954
root 5.684984 32.944850 -1.581821 13.894988 0.608602 -1.547749
Spine -13.775952 -5.102325 0.403731
Head 7.738489 -3.626146 0.247938
LeftShoulder -22.677508 40.044553 20.709601
LeftArm 54.085370 -59.201500 -58.668777
LeftForeArm 11.429931 -0.000000 -3.858010
LeftHand 4.444900 0.000000 5.236004
LeftHandThumb1 -26.253704 0.000000 33.147579
RightShoulder -8.857224 1.607572 -32.199062
RightArm 10.756283 12.643087 36.452909
RightForeArm -9.966351 -0.000000 -1.761514
RightHand 3.177007 -0.000000 1.545798
RightHandThumb1 -24.326973 -0.000000 -32.862282
LeftUpLeg -3.713179 -14.371602 3.058815
LeftLeg -10.043539 -0.000000 0.000000
LeftFoot -2.758339 20.333611 -16.618147
LeftToeBase 0.915468 -0.000000 -0.000000
RightUpLeg -4.621116 5.794394 1.066346
RightLeg -9.201969 -0.000000 0.000000
RightFoot 0.101128 -17.878514 5.937085
RightToeBase -1.578227 -0.000000 0.000000
2955
root 5.671390 32.938630 -1.590909 13.865134 0.699589 -1.526131
Spine -13.750229 -5.145150 0.393919
Head 7.776576 -3.677655 0.236919
LeftShoulder -22.636540 40.003918 20.658488
LeftArm 54.128061 -59.144258 -58.711445
LeftForeArm 11.447182 0.000000 -3.819494
LeftHand 4.448644 0.000000 5.022147
LeftHandThumb1 -26.253704 0.000000 33.147579
RightShoulder -8.868052 1.747798 -32.275234
RightArm 10.612399 12.601432 36.440292
RightForeArm -10.048472 0.000000 -1.749329
RightHand 2.973154 -0.000000 1.654881
RightHandThumb1 -24.326973 -0.000000 -32.862282
LeftUpLeg -3.697250 -14.541239 3.099862
LeftLeg -10.070207 -0.000000 0.000000
LeftFoot -2.849764 20.378848 -16.715855
LeftToeBase 0.936499 -0.000000 -0.000000
RightUpLeg -4.626715 5.647112 1.108621
RightLeg -9.142397 -0.000000 0.000000
RightFoot 0.019888 -17.825417 5.819058
RightToeBase -1.513248 -0.000000 0.000000
2956
root 5.658281 32.929829 -1.599776 13.843737 0.792008 -1.500737
Spine -13.739651 -5.206913 0.385081
Head 7.830215 -3.682739 0.226981
LeftShoulder -22.629227 39.974356 20.582942
LeftArm 54.185030 -59.091935 -58.720621
LeftForeArm 11.449534 0.000000 -3.777815
LeftHand 4.420130 -0.000000 5.036486
LeftHandThumb1 -26.253704 0.000000 33.147579
RightShoulder -8.877799 1.805329 -32.309864
RightArm 10.560803 12.599312 36.362497
RightForeArm -10.082254 -0.000000 -1.758142
RightHand 2.944056 0.000000 1.830721
RightHandThumb1 -24.326973 -0.000000 -32.862282
LeftUpLeg -3.697949 -14.594517 3.114301
LeftLeg -10.077633 -0.000000 0.000000
LeftFoot -2.897832 20.318772 -16.721002
LeftToeBase 0.959562 -0.000000 -0.000000
RightUpLeg -4.577706 5.736499 1.102118
RightLeg -9.219570 -0.000000 0.000000
RightFoot -0.015748 -17.996106 5.788135
RightToeBase -1.564675 -0.000000 0.000000
2957
root 5.646844 32.920573 -1.608578 13.839185 0.880522 -1.475438
Spine -13.753259 -5.247929 0.372823
Head 7.891358 -3.744390 0.220142
LeftShoulder -22.609393 39.970893 20.524220
LeftArm 54.355649 -59.096187 -58.871882
LeftForeArm 11.578139 -0.000000 -3.675393
LeftHand 4.434327 -0.000000 5.101165
LeftHandThumb1 -26.253704 0.000000 33.147579
RightShoulder -8.916682 1.774064 -32.312177
RightArm 10.581555 12.603906 36.227836
RightForeArm -10.106180 -0.000000 -1.774794
RightHand 3.025742 -0.000000 1.812178
RightHandThumb1 -24.326973 -0.000000 -32.862282
LeftUpLeg -3.703922 -14.671005 3.124717
LeftLeg -10.114204 -0.000000 0.000000
LeftFoot -2.906217 20.353720 -16.649514
LeftToeBase 0.922542 -0.000000 -0.000000
RightUpLeg -4.568970 5.764398 1.105937
RightLeg -9.240385 -0.000000 0.000000
RightFoot -0.084265 -18.119091 5.701170
RightToeBase -1.554933 -0.000000 0.000000
